<svg aria-hidden="true" style="position: absolute; width: 0; height: 0; overflow: hidden;" version="1.1" xmlns="http://www.w3.org/2000/svg" xmlns:xlink="http://www.w3.org/1999/xlink">
<defs>
<symbol id="icon-basket" viewBox="0 0 32 32">
<path d="M31.341 6.034h-18.662c-0.131-0.013-0.262 0.012-0.382 0.072s-0.223 0.154-0.301 0.271c-0.078 0.118-0.127 0.256-0.142 0.401s0.002 0.292 0.053 0.427l2.952 9.623c0.086 0.266 0.241 0.497 0.446 0.664s0.449 0.263 0.703 0.274h12.234c0.253-0.012 0.498-0.107 0.703-0.274s0.36-0.398 0.446-0.664l2.571-9.853c0.040-0.108 0.055-0.226 0.042-0.343s-0.052-0.227-0.114-0.322c-0.062-0.095-0.145-0.17-0.241-0.218s-0.202-0.069-0.306-0.058v0z"></path>
<path d="M17.159 28.853c0 0.614-0.164 1.215-0.47 1.726s-0.743 0.909-1.253 1.144c-0.51 0.235-1.071 0.297-1.613 0.177s-1.039-0.416-1.429-0.85c-0.39-0.434-0.656-0.988-0.764-1.59s-0.052-1.227 0.159-1.795c0.211-0.568 0.569-1.053 1.028-1.394s0.999-0.523 1.551-0.523c0.367 0 0.729 0.080 1.068 0.236s0.646 0.385 0.905 0.673c0.259 0.289 0.465 0.631 0.605 1.008s0.212 0.781 0.212 1.189z"></path>
<path d="M28.97 28.891c0 0.614-0.164 1.215-0.47 1.726s-0.743 0.909-1.253 1.144c-0.51 0.235-1.071 0.297-1.613 0.177s-1.039-0.416-1.429-0.85c-0.39-0.434-0.656-0.988-0.764-1.59s-0.052-1.227 0.159-1.795c0.211-0.567 0.569-1.053 1.028-1.394s0.999-0.524 1.551-0.524c0.74 0.001 1.45 0.328 1.973 0.91s0.818 1.372 0.818 2.196z"></path>
<path d="M29.532 20.927h-16.328l-6.535-20.927h-5.088c-0.419 0-0.821 0.185-1.118 0.515s-0.463 0.777-0.463 1.244c0 0.467 0.167 0.914 0.463 1.244s0.698 0.515 1.118 0.515h2.84l6.535 20.927h18.576c0.208 0 0.413-0.045 0.605-0.134s0.366-0.218 0.513-0.381c0.147-0.163 0.263-0.357 0.343-0.571s0.12-0.442 0.12-0.673c0-0.231-0.041-0.46-0.12-0.673s-0.196-0.407-0.343-0.571-0.321-0.293-0.513-0.381c-0.192-0.088-0.397-0.134-0.605-0.134z"></path>
</symbol>
<symbol id="icon-fase" viewBox="0 0 32 32">
<path d="M32 3.544v24.906c0 0.856-0.793 1.544-1.764 1.544h-8.157v-10.837h4.157l0.621-4.225h-4.786v-2.7c0-1.225 0.386-2.056 2.393-2.056h2.557v-3.781c-0.443-0.050-1.957-0.169-3.729-0.169-3.686 0-6.214 1.969-6.214 5.587v3.119h-4.172v4.225h4.172v10.844h-15.314c-0.971 0-1.764-0.694-1.764-1.544v-24.912c0-0.85 0.793-1.544 1.764-1.544h28.464c0.979 0 1.771 0.694 1.771 1.544z"></path>
</symbol>
<symbol id="icon-insta" viewBox="0 0 32 32">
<path d="M16.007 8.813c-4.543 0-8.207 3.206-8.207 7.181s3.664 7.181 8.207 7.181 8.207-3.206 8.207-7.181c0-3.975-3.664-7.181-8.207-7.181zM16.007 20.663c-2.936 0-5.336-2.094-5.336-4.669s2.393-4.669 5.336-4.669 5.336 2.094 5.336 4.669c0 2.575-2.4 4.669-5.336 4.669zM26.464 8.519c0 0.931-0.857 1.675-1.914 1.675-1.064 0-1.914-0.75-1.914-1.675s0.857-1.675 1.914-1.675c1.057 0 1.914 0.75 1.914 1.675zM31.9 10.219c-0.121-2.244-0.707-4.231-2.586-5.869-1.871-1.638-4.143-2.15-6.707-2.263-2.643-0.131-10.564-0.131-13.207 0-2.557 0.106-4.829 0.619-6.707 2.256s-2.457 3.625-2.586 5.869c-0.15 2.313-0.15 9.244 0 11.556 0.121 2.244 0.707 4.231 2.586 5.869s4.143 2.15 6.707 2.262c2.643 0.131 10.564 0.131 13.207 0 2.564-0.106 4.836-0.619 6.707-2.262 1.871-1.637 2.457-3.625 2.586-5.869 0.15-2.313 0.15-9.238 0-11.55zM28.486 24.25c-0.557 1.225-1.636 2.169-3.043 2.663-2.107 0.731-7.107 0.562-9.436 0.562s-7.336 0.162-9.436-0.562c-1.4-0.488-2.479-1.431-3.043-2.663-0.836-1.844-0.643-6.219-0.643-8.256s-0.186-6.419 0.643-8.256c0.557-1.225 1.636-2.169 3.043-2.662 2.107-0.731 7.107-0.563 9.436-0.563s7.336-0.162 9.436 0.563c1.4 0.487 2.479 1.431 3.043 2.662 0.836 1.844 0.643 6.219 0.643 8.256s0.193 6.419-0.643 8.256z"></path>
</symbol>
<symbol id="icon-logo" viewBox="0 0 20 32">
<path d="M14.31 5.367h-1.12c-0.153 0-0.28 0.126-0.28 0.277v7.383c0 1.537-1.248 2.772-2.801 2.772s-2.801-1.235-2.801-2.772v-7.383c0-0.151-0.127-0.277-0.28-0.277h-1.12c-0.153 0-0.28 0.126-0.28 0.277v7.383c0 2.419 1.961 4.384 4.405 4.435h0.204c2.419-0.050 4.405-2.016 4.405-4.435v-7.383c-0.025-0.151-0.153-0.277-0.331-0.277z"></path>
<path d="M19.759 0.101h-19.275c-0.204 0-0.356 0.151-0.356 0.353v31.194c0 0.202 0.153 0.353 0.356 0.353h19.275c0.204 0 0.356-0.151 0.356-0.353v-31.194c0-0.202-0.153-0.353-0.356-0.353zM1.757 2.066v-0.176c0-0.101 0.076-0.202 0.204-0.202h16.372c0.102 0 0.204 0.076 0.204 0.202v14.438l-8.25 8.164c-0.076 0.076-0.204 0.076-0.28 0l-8.25-8.164v-14.261zM18.485 30.035v0.176c0 0.101-0.076 0.202-0.204 0.202h-16.347c-0.102 0-0.204-0.076-0.204-0.202v-11.616l8.122 8.038c0.127 0.126 0.356 0.126 0.509 0l8.122-8.038v11.439z"></path>
</symbol>
<symbol id="icon-logoinfooter" viewBox="0 0 20 32">
<path d="M14.161 5.367h-1.109c-0.151 0-0.277 0.126-0.277 0.277v7.383c0 1.537-1.235 2.772-2.772 2.772s-2.772-1.235-2.772-2.772v-7.383c0-0.151-0.126-0.277-0.277-0.277h-1.109c-0.151 0-0.277 0.126-0.277 0.277v7.383c0 2.419 1.94 4.384 4.359 4.435h0.202c2.394-0.050 4.359-2.016 4.359-4.435v-7.383c-0.025-0.151-0.151-0.277-0.328-0.277z"></path>
<path d="M19.553 0.101h-19.074c-0.202 0-0.353 0.151-0.353 0.353v31.194c0 0.202 0.151 0.353 0.353 0.353h19.074c0.202 0 0.353-0.151 0.353-0.353v-31.194c0-0.202-0.151-0.353-0.353-0.353zM1.739 2.066v-0.176c0-0.101 0.076-0.202 0.202-0.202h16.202c0.101 0 0.202 0.076 0.202 0.202v14.438l-8.164 8.164c-0.076 0.076-0.202 0.076-0.277 0l-8.164-8.164v-14.261zM18.293 30.035v0.176c0 0.101-0.076 0.202-0.202 0.202h-16.176c-0.101 0-0.202-0.076-0.202-0.202v-11.616l8.038 8.038c0.126 0.126 0.353 0.126 0.504 0l8.038-8.038v11.439z"></path>
</symbol>
<symbol id="icon-twit" viewBox="0 0 32 32">
<path d="M28.711 9.482c0.020 0.284 0.020 0.569 0.020 0.853 0 8.67-6.599 18.66-18.66 18.66-3.716 0-7.168-1.076-10.071-2.944 0.528 0.061 1.036 0.081 1.584 0.081 3.066 0 5.888-1.036 8.142-2.802-2.883-0.061-5.3-1.949-6.132-4.548 0.406 0.061 0.812 0.101 1.239 0.101 0.589 0 1.178-0.081 1.726-0.223-3.005-0.609-5.259-3.249-5.259-6.437v-0.081c0.873 0.487 1.888 0.792 2.964 0.832-1.766-1.178-2.924-3.188-2.924-5.462 0-1.218 0.325-2.335 0.893-3.31 3.228 3.98 8.081 6.579 13.523 6.863-0.102-0.487-0.162-0.995-0.162-1.503 0-3.614 2.924-6.558 6.558-6.558 1.888 0 3.594 0.792 4.792 2.071 1.482-0.284 2.903-0.832 4.162-1.584-0.487 1.523-1.523 2.802-2.883 3.614 1.32-0.142 2.599-0.508 3.777-1.015-0.893 1.299-2.010 2.457-3.289 3.391z"></path>
</symbol>
</defs>
</svg>
